<svg xmlns="http://www.w3.org/2000/svg" viewBox="0 0 288 112" fill="none" role="img" aria-label="Advanced master key to child keys not a wallet">
  <defs>
    <marker id="cx-ah-adv" viewBox="0 0 8 8" refX="7" refY="4" markerWidth="8" markerHeight="8" orient="auto">
      <path d="M0 1 L8 4 L0 7" stroke="currentColor" stroke-width="1" fill="none"/>
    </marker>
  </defs>
  <g transform="translate(8,24)">
    <circle cx="24" cy="24" r="16" stroke="currentColor" stroke-width="1"/>
    <rect x="36" y="20" width="28" height="8" rx="4" stroke="currentColor" stroke-width="1"/>
    <text x="32" y="56" fill="currentColor" font-size="8" font-family="ui-monospace, monospace" text-anchor="middle">master</text>
  </g>
  <g transform="translate(72,8) scale(0.45,0.85)">
    <path d="M8 24 H88" stroke="currentColor" stroke-width="1" marker-end="url(#cx-ah-adv)"/>
  </g>
  <g transform="translate(80,40) scale(0.7,0.7)">
    <path d="M24 36 A24 24 0 0 1 72 36" stroke="currentColor" stroke-width="1" marker-end="url(#cx-ah-adv)"/>
  </g>
  <g transform="translate(168,4)">
    <circle cx="16" cy="16" r="12" stroke="currentColor" stroke-width="1"/>
    <rect x="26" y="12" width="20" height="8" rx="4" stroke="currentColor" stroke-width="1"/>
    <text x="28" y="40" fill="currentColor" font-size="8" font-family="ui-monospace, monospace" text-anchor="middle">child</text>
  </g>
  <g transform="translate(176,56)">
    <circle cx="16" cy="16" r="12" stroke="currentColor" stroke-width="1"/>
    <rect x="26" y="12" width="20" height="8" rx="4" stroke="currentColor" stroke-width="1"/>
    <text x="28" y="40" fill="currentColor" font-size="8" font-family="ui-monospace, monospace" text-anchor="middle">child</text>
  </g>
  <g transform="translate(176,88)">
    <rect x="0" y="0" width="96" height="20" rx="8" stroke="currentColor" stroke-width="1"/>
    <text x="48" y="14" fill="currentColor" font-size="8" font-family="ui-monospace, monospace" text-anchor="middle">not a wallet</text>
  </g>
</svg>
